<svg width="1728" height="1181" viewBox="0 0 1728 1181" fill="none" xmlns="http://www.w3.org/2000/svg">
<path d="M499.538 52.5903C178.989 33.3105 -71.6931 24.3886 -165.002 124.5V818C566.999 1191 689.499 732.5 982.499 1014.5C1349.59 1367.81 1729.17 1092 1729.17 799C1729.17 799 1737.04 723 1690 622C1673.85 565 1713.18 542.973 1717.5 458.5C1719.08 427.554 1838 297 1771.5 297C1772.07 280.749 1769.24 267.112 1765.72 254.301L1756 182.5C1779 57.5846 1729.17 -12 1729.17 -12C1670 63.0835 1722.67 -59.0723 1396.5 32.5C1064.23 125.786 855.499 74 499.538 52.5903Z" fill="#DACAEA"/>
</svg>
