<svg width="49" height="41" viewBox="0 0 49 41" fill="none" xmlns="http://www.w3.org/2000/svg">
<path d="M20.8162 1.06957L20.8816 12.0199C20.9159 17.7594 20.2643 22.4708 18.9269 26.1542C17.5392 29.8379 15.1916 32.9735 11.884 35.561C8.57651 38.1486 4.81077 39.8829 0.586789 40.764L0.534453 32.0038C3.49466 30.2743 5.16757 27.9734 5.5532 25.1013L0.493396 25.1315L0.350373 1.19184L20.8162 1.06957ZM48.1542 0.906242L48.2196 11.8566C48.2539 17.596 47.6024 22.3075 46.265 25.9909C44.8772 29.6746 42.5296 32.8102 39.2221 35.3977C35.8642 37.9855 32.0985 39.7199 27.9248 40.6007L27.8725 31.8405C30.8327 30.1109 32.5056 27.8101 32.8913 24.938L27.8314 24.9682L27.6884 1.02851L48.1542 0.906242Z" fill="#FFB646"/>
</svg>
