<svg width="1728" height="1013" viewBox="0 0 1728 1013" fill="none" xmlns="http://www.w3.org/2000/svg">
<g opacity="0.1" clip-path="url(#clip0_0_1)">
<path d="M2259.15 1013C2259.15 1306.39 2021.31 1544.23 1727.92 1544.23C1434.54 1544.23 1196.85 1306.39 1196.85 1013C1196.85 719.615 1434.61 481.848 1728 481.848C2021.38 481.848 2259.23 719.615 2259.23 1013H2259.15Z" stroke="#513369" stroke-opacity="0.4" stroke-width="5"/>
<path d="M1373.9 838.591C1373.9 643.026 1532.43 484.49 1728 484.49C1923.56 484.49 2082.1 643.026 2082.1 838.591C2082.1 1034.16 1923.56 1192.69 1728 1192.69C1532.43 1192.69 1373.9 1034.16 1373.9 838.591Z" stroke="#513369" stroke-opacity="0.4" stroke-width="5" stroke-miterlimit="10" stroke-linecap="round"/>
<path d="M1373.9 1192.77C1373.9 997.202 1532.43 838.666 1728 838.666C1923.56 838.666 2082.1 997.202 2082.1 1192.77C2082.1 1388.33 1923.56 1546.87 1728 1546.87C1532.43 1546.87 1373.9 1388.33 1373.9 1192.77Z" stroke="#513369" stroke-opacity="0.4" stroke-width="5" stroke-miterlimit="10" stroke-linecap="round"/>
<path d="M1866.15 772.131C1927.29 695.818 1914.99 584.393 1838.68 523.256C1762.36 462.118 1650.94 474.419 1589.8 550.732C1528.66 627.044 1540.96 738.469 1617.28 799.607C1693.59 860.744 1805.01 848.443 1866.15 772.131Z" stroke="#513369" stroke-opacity="0.4" stroke-width="5" stroke-miterlimit="10" stroke-linecap="round"/>
<path d="M2061.94 602.474C2013.29 739.946 1882.11 838.516 1728 838.516C1573.89 838.516 1442.64 740.021 1394.06 602.474" stroke="#513369" stroke-opacity="0.4" stroke-width="5" stroke-miterlimit="10"/>
<path d="M1550.95 1015.64C1550.95 917.896 1630.25 838.591 1728 838.591C1825.74 838.591 1905.05 917.821 1905.05 1015.64C1905.05 1113.46 1825.82 1192.69 1728 1192.69C1630.18 1192.69 1550.95 1113.46 1550.95 1015.64Z" stroke="#513369" stroke-opacity="0.4" stroke-width="5" stroke-miterlimit="10" stroke-linecap="round"/>
<path d="M1423.15 671.792C1430.14 671.792 1435.81 666.12 1435.81 659.124C1435.81 652.128 1430.14 646.456 1423.15 646.456C1416.15 646.456 1410.48 652.128 1410.48 659.124C1410.48 666.12 1416.15 671.792 1423.15 671.792Z" fill="#513369" fill-opacity="0.4"/>
<path d="M1421.27 1025.29C1428.27 1025.29 1433.94 1019.62 1433.94 1012.63C1433.94 1005.63 1428.27 999.957 1421.27 999.957C1414.28 999.957 1408.6 1005.63 1408.6 1012.63C1408.6 1019.62 1414.28 1025.29 1421.27 1025.29Z" fill="#513369" fill-opacity="0.4"/>
</g>
<g opacity="0.3">
<mask id="mask0_0_1" style="mask-type:alpha" maskUnits="userSpaceOnUse" x="555" y="0" width="618" height="352">
<rect x="555" width="618" height="352" fill="#2D082E"/>
</mask>
<g mask="url(#mask0_0_1)">
<g opacity="0.3">
<path d="M1002.99 1.4137C1002.99 79.708 939.664 143.418 861.848 143.418C784.032 143.418 720.711 79.708 720.711 1.4137C720.711 -76.8806 784.032 -140.591 861.848 -140.591C939.664 -140.591 1002.99 -76.8806 1002.99 1.4137Z" stroke="#921C2C" stroke-width="2" stroke-miterlimit="10"/>
<path d="M1002.99 143.418C1002.99 221.712 939.664 285.422 861.848 285.422C784.032 285.422 720.711 221.712 720.711 143.418C720.711 65.1236 784.032 1.41357 861.848 1.41357C939.664 1.41357 1002.99 64.7398 1002.99 143.418Z" stroke="#921C2C" stroke-width="2" stroke-miterlimit="10"/>
<path d="M1002.99 -140.59C1002.99 -62.2962 939.664 1.41386 861.848 1.41386C784.032 1.41386 720.711 -62.2962 720.711 -140.59C720.711 -218.885 784.032 -282.595 861.848 -282.595C939.664 -282.595 1002.99 -218.885 1002.99 -140.59Z" stroke="#921C2C" stroke-width="2" stroke-miterlimit="10"/>
<path d="M1125.05 -69.5885C1125.05 8.70577 1061.73 72.4158 983.915 72.4158C906.098 72.4158 842.777 8.70577 842.777 -69.5885C842.777 -147.883 906.098 -211.593 983.915 -211.593C1062.11 -211.593 1125.05 -147.883 1125.05 -69.5885Z" stroke="#921C2C" stroke-width="2" stroke-miterlimit="10"/>
<path d="M1125.05 72.4157C1125.05 150.71 1061.73 214.42 983.915 214.42C906.098 214.42 842.777 150.71 842.777 72.4157C842.777 -5.8786 906.098 -69.5886 983.915 -69.5886C1062.11 -69.5886 1125.05 -6.2624 1125.05 72.4157Z" stroke="#921C2C" stroke-width="2" stroke-miterlimit="10"/>
<path d="M880.923 72.4157C880.923 150.71 817.602 214.42 739.786 214.42C661.97 214.42 598.648 150.71 598.648 72.4157C598.648 -5.8786 661.588 -69.5886 739.786 -69.5886C817.602 -69.5886 880.923 -5.8786 880.923 72.4157Z" stroke="#921C2C" stroke-width="2" stroke-miterlimit="10"/>
<path d="M880.923 -69.5885C880.923 8.70577 817.602 72.4158 739.786 72.4158C661.97 72.4158 598.648 8.70577 598.648 -69.5885C598.648 -147.883 661.588 -211.593 739.786 -211.593C817.602 -211.593 880.923 -147.883 880.923 -69.5885Z" stroke="#921C2C" stroke-width="2" stroke-miterlimit="10"/>
<path d="M739.785 78.9405C743.367 78.9405 746.27 76.0194 746.27 72.416C746.27 68.8126 743.367 65.8915 739.785 65.8915C736.204 65.8915 733.301 68.8126 733.301 72.416C733.301 76.0194 736.204 78.9405 739.785 78.9405Z" fill="#C68E00"/>
<path d="M617.719 8.32224C621.3 8.32224 624.204 5.40113 624.204 1.79773C624.204 -1.80566 621.3 -4.72681 617.719 -4.72681C614.138 -4.72681 611.234 -1.80566 611.234 1.79773C611.234 5.40113 614.138 8.32224 617.719 8.32224Z" fill="#C68E00"/>
<path d="M977.811 72.0321C977.811 68.5779 980.481 65.5076 984.295 65.5076C987.728 65.5076 990.78 68.1941 990.78 72.0321C990.78 75.4862 988.11 78.5566 984.295 78.5566C980.481 78.5566 977.811 75.4862 977.811 72.0321Z" fill="#C68E00"/>
<path d="M977.428 214.036C977.428 210.582 980.098 207.512 983.912 207.512C987.345 207.512 990.397 210.198 990.397 214.036C990.397 217.49 987.727 220.561 983.912 220.561C980.098 220.561 977.428 217.49 977.428 214.036Z" fill="#C68E00"/>
<path d="M1099.5 1.41391C1099.5 -2.04024 1102.17 -5.1106 1105.98 -5.1106C1109.41 -5.1106 1112.47 -2.42404 1112.47 1.41391C1112.47 4.86807 1109.8 7.93845 1105.98 7.93845C1102.17 7.93845 1099.5 4.86807 1099.5 1.41391Z" fill="#C68E00"/>
<path d="M855.744 143.418C855.744 139.964 858.414 136.894 862.229 136.894C865.662 136.894 868.714 139.964 868.714 143.418C868.714 146.872 866.043 149.943 862.229 149.943C858.414 149.943 855.744 146.872 855.744 143.418Z" fill="#C68E00"/>
<path d="M733.682 214.036C733.682 210.582 736.352 207.512 740.166 207.512C743.599 207.512 746.651 210.198 746.651 214.036C746.651 217.49 743.981 220.561 740.166 220.561C736.352 220.561 733.682 217.49 733.682 214.036Z" fill="#C68E00"/>
</g>
</g>
</g>
<g opacity="0.2" filter="url(#filter0_f_0_1)">
<circle cx="48" cy="734" r="341" fill="#2D082E"/>
</g>
<defs>
<filter id="filter0_f_0_1" x="-682" y="4" width="1460" height="1460" filterUnits="userSpaceOnUse" color-interpolation-filters="sRGB">
<feFlood flood-opacity="0" result="BackgroundImageFix"/>
<feBlend mode="normal" in="SourceGraphic" in2="BackgroundImageFix" result="shape"/>
<feGaussianBlur stdDeviation="194.5" result="effect1_foregroundBlur_0_1"/>
</filter>
<clipPath id="clip0_0_1">
<rect width="1068" height="1068" fill="white" transform="translate(1194 479)"/>
</clipPath>
</defs>
</svg>
