<svg width="492" height="913" viewBox="0 0 492 913" fill="none" xmlns="http://www.w3.org/2000/svg">
<path d="M650.593 456.485C650.593 582.051 548.864 684.227 423.847 684.227C298.831 684.227 197.102 582.051 197.102 456.485C197.102 330.918 298.831 228.742 423.847 228.742C548.864 228.742 650.593 330.918 650.593 456.485Z" stroke="white" stroke-opacity="0.5" stroke-width="2" stroke-miterlimit="10"/>
<path d="M650.593 684.227C650.593 809.793 548.864 911.969 423.847 911.969C298.831 911.969 197.102 809.793 197.102 684.227C197.102 558.661 298.831 456.484 423.847 456.484C548.864 456.484 650.593 558.045 650.593 684.227Z" stroke="white" stroke-opacity="0.5" stroke-width="2" stroke-miterlimit="10"/>
<path d="M650.593 228.742C650.593 354.309 548.864 456.485 423.847 456.485C298.831 456.485 197.102 354.309 197.102 228.742C197.102 103.176 298.831 1 423.847 1C548.864 1 650.593 103.176 650.593 228.742Z" stroke="white" stroke-opacity="0.5" stroke-width="2" stroke-miterlimit="10"/>
<path d="M846.698 342.613C846.698 468.179 744.969 570.356 619.953 570.356C494.936 570.356 393.207 468.179 393.207 342.613C393.207 217.047 494.936 114.871 619.953 114.871C745.582 114.871 846.698 217.047 846.698 342.613Z" stroke="white" stroke-opacity="0.5" stroke-width="2" stroke-miterlimit="10"/>
<path d="M846.698 570.355C846.698 695.922 744.969 798.098 619.953 798.098C494.936 798.098 393.207 695.922 393.207 570.355C393.207 444.789 494.936 342.613 619.953 342.613C745.582 342.613 846.698 444.174 846.698 570.355Z" stroke="white" stroke-opacity="0.5" stroke-width="2" stroke-miterlimit="10"/>
<path d="M454.491 570.355C454.491 695.922 352.762 798.098 227.746 798.098C102.729 798.098 1 695.922 1 570.355C1 444.789 102.116 342.613 227.746 342.613C352.762 342.613 454.491 444.789 454.491 570.355Z" stroke="white" stroke-opacity="0.5" stroke-width="2" stroke-miterlimit="10"/>
<path d="M454.491 342.613C454.491 468.179 352.762 570.356 227.746 570.356C102.729 570.356 1 468.179 1 342.613C1 217.047 102.116 114.871 227.746 114.871C352.762 114.871 454.491 217.047 454.491 342.613Z" stroke="white" stroke-opacity="0.5" stroke-width="2" stroke-miterlimit="10"/>
<path d="M227.744 353.078C233.498 353.078 238.162 348.393 238.162 342.614C238.162 336.835 233.498 332.15 227.744 332.15C221.99 332.15 217.326 336.835 217.326 342.614C217.326 348.393 221.99 353.078 227.744 353.078Z" fill="#C68E00"/>
<path d="M227.744 580.82C233.498 580.82 238.162 576.135 238.162 570.356C238.162 564.577 233.498 559.892 227.744 559.892C221.99 559.892 217.326 564.577 217.326 570.356C217.326 576.135 221.99 580.82 227.744 580.82Z" fill="#C68E00"/>
<path d="M31.6387 467.564C37.3925 467.564 42.0568 462.88 42.0568 457.101C42.0568 451.322 37.3925 446.637 31.6387 446.637C25.885 446.637 21.2207 451.322 21.2207 457.101C21.2207 462.88 25.885 467.564 31.6387 467.564Z" fill="#C68E00"/>
<path d="M423.846 239.205C429.599 239.205 434.264 234.52 434.264 228.741C434.264 222.962 429.599 218.278 423.846 218.278C418.092 218.278 413.428 222.962 413.428 228.741C413.428 234.52 418.092 239.205 423.846 239.205Z" fill="#C68E00"/>
<path d="M227.744 125.334C233.498 125.334 238.162 120.65 238.162 114.871C238.162 109.092 233.498 104.407 227.744 104.407C221.99 104.407 217.326 109.092 217.326 114.871C217.326 120.65 221.99 125.334 227.744 125.334Z" fill="#C68E00"/>
<path d="M414.041 684.227C414.041 678.687 418.331 673.763 424.459 673.763C429.975 673.763 434.877 678.687 434.877 684.227C434.877 689.767 430.587 694.691 424.459 694.691C418.331 694.691 414.041 689.767 414.041 684.227Z" fill="#C68E00"/>
<path d="M217.939 797.482C217.939 791.943 222.229 787.019 228.358 787.019C233.873 787.019 238.776 791.327 238.776 797.482C238.776 803.022 234.486 807.946 228.358 807.946C222.229 807.946 217.939 803.022 217.939 797.482Z" fill="#C68E00"/>
</svg>
